<?xml version="1.0" encoding="utf-8"?>
<!-- Generator: Adobe Illustrator 19.2.1, SVG Export Plug-In . SVG Version: 6.00 Build 0)  -->
<svg version="1.1" id="layer" xmlns="http://www.w3.org/2000/svg" xmlns:xlink="http://www.w3.org/1999/xlink" x="0px" y="0px"
	 viewBox="0 0 652 652" style="enable-background:new 0 0 652 652;" xml:space="preserve">
<style type="text/css">
	.st0{fill:#003671;}
	.st1{fill:#EF7B10;}
</style>
<path class="st0" d="M29.9,418.4l3.9-5.7h28.7l-4,5.7H47.7l-18.5,27.2H22l18.5-27.2H29.9z M62.3,444.3c-1,0.4-2,0.8-3,1.1
	c-0.7,0.2-1.3,0.3-1.9,0.4c-0.6,0.1-1.2,0.2-1.9,0.2h-0.9h-0.9c-0.8,0-1.7-0.1-2.5-0.2c-0.7-0.1-1.5-0.3-2.2-0.6
	c-0.6-0.3-1.1-0.6-1.6-1c-0.4-0.4-0.7-0.9-0.9-1.5c-0.2-0.6-0.3-1.3-0.3-1.9c0-0.7,0.2-1.5,0.4-2.2c0.3-0.8,0.6-1.7,1-2.4
	c0.5-0.9,1-1.7,1.5-2.6c0.6-0.8,1.2-1.7,1.9-2.5c0.7-0.8,1.5-1.6,2.3-2.5c0.9-0.8,1.7-1.5,2.7-2.2c0.9-0.7,1.9-1.4,2.9-1.9
	c1-0.6,1.9-1,2.9-1.5c1-0.4,2-0.8,3-1.1c1-0.3,2-0.5,3-0.6c0.9-0.1,1.8-0.2,2.8-0.2c0.8,0,1.6,0.1,2.4,0.2c0.7,0.1,1.4,0.4,2.1,0.6
	c0.6,0.2,1.2,0.6,1.6,1.1c0.4,0.4,0.7,0.9,0.9,1.5c0.2,0.6,0.3,1.3,0.2,1.9c-0.1,0.7-0.2,1.5-0.4,2.2c-0.3,0.8-0.6,1.7-1,2.5
	c-0.4,0.9-0.9,1.7-1.5,2.5c-0.6,0.9-1.3,1.8-2,2.6c-0.8,0.9-1.6,1.7-2.4,2.4c-0.8,0.8-1.7,1.5-2.6,2.2c-0.9,0.7-1.9,1.3-2.9,1.9
	C64.2,443.2,63.2,443.7,62.3,444.3L62.3,444.3z M55.5,440.5c0.1,0.1,0.1,0.1,0.2,0.1h0.2h0.3c0.7,0.1,1.5,0.1,2.2,0
	c0.9-0.2,1.7-0.4,2.6-0.8c0.9-0.4,1.8-0.8,2.6-1.4c0.8-0.6,1.6-1.2,2.3-2c0.3-0.2,0.5-0.5,0.7-0.8l0.7-0.9c0.3-0.3,0.5-0.6,0.8-0.9
	l0.7-0.9c0.4-0.6,0.8-1.3,1-2c0.3-0.6,0.4-1.2,0.6-1.8c0.1-0.5,0.1-1.1,0-1.6c-0.2-0.5-0.5-0.8-0.9-1.1l-0.3-0.2h-0.3h-0.4h-0.4
	c-0.3,0-0.7,0-1,0c-0.4,0-0.7,0.1-1.1,0.2c-0.4,0.1-0.8,0.2-1.2,0.3c-0.4,0.1-0.8,0.3-1.2,0.5c-0.9,0.4-1.7,0.8-2.5,1.4
	c-0.8,0.5-1.5,1.1-2.2,1.8l-0.8,0.8l-0.7,0.8c-0.2,0.3-0.4,0.5-0.6,0.8l-0.5,0.8c-0.5,0.7-0.9,1.4-1.2,2.2c-0.3,0.6-0.5,1.3-0.6,2
	c-0.1,0.6-0.1,1.1,0.1,1.6c0.2,0.5,0.6,0.8,1.1,1h0.2 M91,448.8c-1.1,1.1-2.3,2.1-3.6,3c-1.3,0.8-2.7,1.4-4.1,1.8
	c-1.5,0.4-3.1,0.6-4.6,0.6H66l3.3-4.9h11.5c0.7-0.1,1.3-0.2,1.9-0.3c0.6-0.2,1.2-0.4,1.7-0.7c0.6-0.3,1.1-0.7,1.5-1.2
	c0.5-0.5,0.9-1,1.3-1.6h-5.2c-0.9,0-1.8,0-2.6,0c-0.7,0-1.5-0.1-2.2-0.3c-0.6-0.1-1.2-0.3-1.7-0.7c-0.5-0.4-0.8-1-1-1.6
	c-0.2-0.6-0.3-1.2-0.2-1.8c0-0.7,0.1-1.3,0.3-2c0.2-0.7,0.5-1.5,0.8-2.2c0.3-0.7,0.7-1.5,1.1-2.2l0.2-0.3c0-0.1,0.1-0.1,0.1-0.2
	c0,0,0,0,0-0.1c0.1-0.1,0.2-0.2,0.3-0.3l0.2-0.3c0.1-0.1,0.2-0.3,0.3-0.4l0.3-0.4l0.3-0.4l0.3-0.4c0.5-0.7,1.1-1.4,1.8-2.2
	c0.7-0.8,1.4-1.4,2.2-2c0.7-0.7,1.5-1.3,2.3-1.9c0.8-0.6,1.7-1.1,2.6-1.6c1-0.6,2-1,3-1.5c0.9-0.4,1.8-0.6,2.8-0.8
	c0.9-0.2,1.8-0.3,2.7-0.4c0.9-0.1,1.7-0.1,2.6-0.1h11.8l-15.9,23.3C93.3,446.2,92.2,447.6,91,448.8L91,448.8z M90.7,440.6l9.5-14
	h-0.4H99c-0.1,0-0.3,0-0.4,0h-1.2c-1,0-2,0.1-3,0.2c-1,0.1-2.1,0.3-3.1,0.6c-1.2,0.3-2.2,0.9-3.1,1.7c-1.1,0.9-2.2,2-3,3.2l-0.1,0.2
	h-0.1c0,0.1,0,0.1,0,0.2c-0.1,0.1-0.1,0.2-0.2,0.3c0,0.1-0.1,0.2-0.2,0.3c-0.4,0.6-0.8,1.1-1.1,1.8c-0.3,0.5-0.6,1.1-0.9,1.7
	c-0.2,0.5-0.3,1-0.2,1.5c0,0.4,0.2,0.9,0.4,1.2c0.2,0.2,0.3,0.4,0.6,0.5c0.2,0.1,0.5,0.2,0.7,0.3l0.9,0.2c0.3,0,0.6,0,1,0h1.6
	L90.7,440.6z M107.5,445.6c-0.7-0.1-1.5-0.2-2.2-0.5c-0.6-0.2-1.2-0.5-1.6-1c-0.4-0.5-0.7-1-0.9-1.6c-0.1-0.6-0.1-1.1,0-1.7
	c0.1-0.7,0.2-1.3,0.5-2c0.3-0.7,0.6-1.4,0.9-2.2c0.3-0.8,0.7-1.4,1.2-2.2l0.2-0.2c0-0.1,0.1-0.2,0.2-0.2l0.2-0.2
	c0.1-0.1,0.1-0.2,0.2-0.3c0-0.1,0-0.1,0-0.2c0-0.1,0.1-0.1,0.1-0.2v-0.2V433l0.2-0.3l0.3-0.3c0.5-0.7,1.1-1.4,1.7-2
	c0.6-0.6,1.2-1.3,1.9-2c0.7-0.7,1.4-1.3,2.2-1.9c0.8-0.6,1.6-1.2,2.4-1.7c1-0.6,2-1.2,3.1-1.7c1-0.4,1.9-0.7,2.9-1
	c0.9-0.2,1.9-0.4,2.8-0.5c0.9-0.1,1.8-0.2,2.7-0.2h9.5l-3.5,5h-8.5c-0.9,0-1.7,0.1-2.6,0.3c-0.8,0.1-1.6,0.3-2.3,0.6
	c-0.8,0.3-1.6,0.7-2.2,1.3c-0.8,0.7-1.6,1.5-2.2,2.4h14.6l-3.5,5h-14.3c-0.5,0.8-1,1.6-1.3,2.5c-0.2,0.6,0,1.1,0.3,1.3
	c0.5,0.3,0.9,0.4,1.5,0.5c0.8,0.1,1.6,0.2,2.4,0.2h8.6l-3.4,4.9H110c-0.8,0-1.6,0-2.5-0.1 M142.1,421.4l6-8.7h6.6l-6,8.7h6.8
	l-3.3,4.8h-6.9l-6.7,9.8c-0.7,0.9-1.2,1.8-1.6,2.9c-0.2,0.7,0,1.1,0.4,1.3c0.5,0.2,1.1,0.4,1.7,0.5c0.9,0.1,1.7,0.1,2.6,0.1h0.5
	l-3.3,4.7H133c-1,0.1-2-0.1-2.9-0.5c-0.3-0.1-0.6-0.3-0.8-0.6c-0.2-0.3-0.4-0.6-0.4-0.9c-0.1-0.8-0.1-1.6,0.2-2.3
	c0.4-1.1,1-2.2,1.7-3.1l8.1-11.9h-4.5l3.3-4.8L142.1,421.4z M171.5,412.7l-6,8.7h5.7c1.3,0,2.6,0.2,3.8,0.5c0.9,0.2,1.6,0.7,2.2,1.4
	c0.3,0.4,0.4,0.8,0.4,1.3c0,0.5,0,0.9-0.2,1.4c-0.5,1.5-1.2,3-2.2,4.3l-10.4,15.2h-6.6l10-14.6c0.5-0.6,0.8-1.3,1.1-2
	c0.2-0.4,0.3-0.9,0.2-1.3c-0.1-0.2-0.2-0.3-0.3-0.5c-0.1-0.1-0.3-0.2-0.5-0.3c-0.6-0.2-1.3-0.2-1.9-0.2h-5.1l-12.9,18.9h-6.3
	l22.5-33L171.5,412.7z M178.9,445.6c-0.7-0.1-1.5-0.2-2.2-0.5c-0.6-0.2-1.2-0.5-1.6-1c-0.4-0.5-0.7-1-0.8-1.6
	c-0.1-0.6-0.1-1.1,0-1.7c0.1-0.7,0.2-1.3,0.5-2c0.3-0.7,0.6-1.5,0.9-2.2c0.3-0.7,0.7-1.4,1.2-2.2c0.1-0.1,0.1-0.1,0.2-0.2l0.2-0.2
	c0.1-0.1,0.1-0.1,0.2-0.2l0.2-0.3v-0.2l0.1-0.2v-0.2V433l0.2-0.3l0.3-0.3c0.5-0.7,1.1-1.4,1.7-2c0.6-0.6,1.2-1.3,1.9-2
	c0.7-0.7,1.4-1.3,2.2-1.9c0.8-0.6,1.6-1.2,2.4-1.7c1-0.6,2.1-1.2,3.1-1.7c1-0.4,1.9-0.7,2.9-1c0.9-0.2,1.8-0.4,2.8-0.5
	c0.9-0.1,1.8-0.2,2.7-0.2h9.5l-3.5,5h-8.5c-0.9,0-1.7,0.1-2.6,0.3c-0.7,0.1-1.5,0.3-2.2,0.6c-0.8,0.3-1.6,0.7-2.2,1.3
	c-0.8,0.7-1.6,1.6-2.2,2.4h14.6l-3.5,5h-14.5c-0.5,0.8-1,1.6-1.3,2.5c-0.2,0.6,0,1.1,0.3,1.3c0.5,0.3,1,0.4,1.5,0.5
	c0.8,0.1,1.6,0.2,2.4,0.2h8.6l-3.4,4.9h-9.3c-0.8,0-1.6,0-2.5-0.1 M222.2,421.4c1.3-0.1,2.5,0.2,3.7,0.6c0.2,0.1,0.3,0.2,0.4,0.3
	c0.1,0.1,0.2,0.3,0.3,0.4s0.1,0.3,0.1,0.5c0,0.2,0,0.4-0.1,0.5c-0.3,0.9-0.8,1.9-1.3,2.7c-0.6,1.1-1.4,2.2-2.2,3.6l-0.3,0.3
	c-0.1,0.1-0.1,0.3-0.2,0.4c-0.1,0.1-0.1,0.1-0.1,0.2v0.2l-0.2,0.2c0,0,0,0-0.1,0.2h-6.1l0.2-0.2c0-0.1,0.1-0.2,0.2-0.3
	c0-0.1,0.1-0.1,0.1-0.1v-0.2c0.6-0.9,1.2-1.7,1.7-2.6c0.4-0.7,0.5-1.1,0.4-1.3c-0.1-0.2-0.4-0.3-0.9-0.4c-0.8-0.1-1.7-0.1-2.5-0.1
	h-0.7l-13.3,19.5h-6.6l16.5-24.2L222.2,421.4z M253.2,421.4l6-8.7h6.6l-6,8.7h6.8l-3.3,4.8h-6.8l-6.7,9.8c-0.7,0.9-1.2,1.8-1.6,2.9
	c-0.2,0.7,0,1.1,0.4,1.3c0.5,0.2,1.1,0.4,1.7,0.5c0.9,0.1,1.7,0.1,2.6,0.1h0.4l-3.2,4.8h-5.9c-1,0.1-2-0.1-2.9-0.5
	c-0.3-0.1-0.6-0.3-0.8-0.6c-0.2-0.3-0.4-0.6-0.4-0.9c-0.1-0.8-0.1-1.6,0.2-2.4c0.4-1.1,1-2.2,1.7-3.1l8.1-11.9h-4.5l3.3-4.8H253.2z
	 M273.2,444.3c-1,0.4-2,0.8-3,1.1c-0.7,0.2-1.3,0.3-1.9,0.4c-0.6,0.1-1.2,0.2-1.9,0.2h-0.9h-0.9c-0.8,0-1.6-0.1-2.4-0.2
	c-0.7-0.1-1.5-0.3-2.2-0.6c-0.6-0.2-1.1-0.6-1.6-1c-0.4-0.4-0.7-0.9-0.9-1.5c-0.2-0.6-0.3-1.3-0.3-1.9c0-0.7,0.2-1.5,0.4-2.2
	c0.3-0.8,0.7-1.7,1.1-2.4c0.5-0.9,1-1.7,1.5-2.6c0.6-0.8,1.2-1.7,1.9-2.5c0.7-0.8,1.5-1.6,2.4-2.5c0.8-0.8,1.7-1.5,2.7-2.2
	c0.9-0.7,1.9-1.4,2.9-1.9c1-0.5,1.9-1,2.9-1.5c1-0.4,2-0.8,3-1.1c1-0.3,2-0.5,3-0.6c0.9-0.2,1.8-0.2,2.8-0.2c0.8,0,1.6,0.1,2.4,0.2
	c0.7,0.1,1.5,0.4,2.2,0.6c0.6,0.2,1.1,0.6,1.6,1.1c0.4,0.4,0.7,0.9,0.9,1.5c0.2,0.6,0.3,1.3,0.2,1.9c0,0.7-0.2,1.5-0.4,2.2
	c-0.3,0.9-0.6,1.7-1,2.5c-0.4,0.9-0.9,1.7-1.5,2.5c-0.6,0.9-1.3,1.8-2,2.6c-0.8,0.9-1.6,1.7-2.4,2.4c-0.8,0.8-1.7,1.5-2.6,2.2
	c-0.9,0.7-1.9,1.3-2.9,1.9C275.3,443.2,274.3,443.7,273.2,444.3L273.2,444.3z M266.6,440.6c0.1,0.1,0.2,0.1,0.2,0.1h0.2h0.2
	c0.7,0.1,1.5,0.1,2.2,0c0.9-0.2,1.7-0.4,2.6-0.8c0.9-0.4,1.8-0.8,2.6-1.4c0.8-0.6,1.6-1.2,2.3-2c0.2-0.2,0.5-0.5,0.7-0.8
	c0.2-0.3,0.5-0.6,0.7-0.9c0.3-0.3,0.5-0.6,0.7-0.9l0.7-0.9c0.4-0.6,0.8-1.3,1-2c0.2-0.6,0.4-1.2,0.6-1.8c0.1-0.5,0.1-1.1,0-1.6
	c-0.2-0.4-0.5-0.8-0.9-1.1l-0.3-0.2h-0.3h-0.4H279c-0.3,0-0.7,0-1,0c-0.4,0-0.7,0.1-1.1,0.2c-0.4,0.1-0.8,0.2-1.2,0.3
	c-0.4,0.1-0.8,0.3-1.2,0.5c-0.9,0.4-1.7,0.8-2.5,1.4c-0.8,0.5-1.5,1.1-2.2,1.8l-0.8,0.8l-0.7,0.8c-0.2,0.3-0.4,0.5-0.6,0.8l-0.5,0.8
	c-0.5,0.7-0.9,1.4-1.2,2.2c-0.3,0.6-0.5,1.3-0.6,2c-0.1,0.5-0.1,1.1,0.1,1.6c0.2,0.5,0.6,0.8,1.1,1h0.2 M318.4,421.4l6-8.7h6.4
	l-6,8.7h6.8l-3.3,4.8h-6.8L315,436c-0.7,0.9-1.2,1.8-1.6,2.9c-0.2,0.7,0,1.1,0.4,1.3c0.5,0.2,1.1,0.4,1.7,0.5
	c0.9,0.1,1.7,0.1,2.6,0.1h0.4l-3.2,4.8h-5.9c-1,0.1-2-0.1-2.9-0.5c-0.3-0.1-0.6-0.3-0.8-0.6c-0.2-0.3-0.4-0.6-0.4-0.9
	c-0.1-0.8-0.1-1.6,0.2-2.4c0.4-1.1,1-2.2,1.7-3.1l8.1-11.9h-4.5l3.3-4.8H318.4z M347.8,412.7l-6,8.7h5.7c1.3,0,2.6,0.2,3.8,0.5
	c0.8,0.3,1.6,0.7,2.2,1.4c0.3,0.4,0.5,0.9,0.6,1.4c0.1,0.5,0,1-0.2,1.5c-0.5,1.5-1.2,3-2.2,4.3l-10.4,15.2h-6.6l10-14.6
	c0.4-0.6,0.8-1.3,1.1-2c0.2-0.4,0.3-0.9,0.2-1.3c-0.1-0.2-0.2-0.3-0.3-0.5c-0.1-0.1-0.3-0.2-0.5-0.3c-0.6-0.2-1.3-0.2-1.9-0.2h-5.1
	l-12.9,18.9H319l22.5-33H347.8z M355.2,445.6c-0.7-0.1-1.5-0.2-2.2-0.5c-0.6-0.2-1.2-0.5-1.6-1c-0.4-0.5-0.7-1-0.8-1.6
	c-0.1-0.6-0.1-1.1,0-1.7c0.1-0.7,0.2-1.3,0.5-2c0.3-0.7,0.6-1.5,0.9-2.2c0.3-0.7,0.7-1.4,1.2-2.2c0.1-0.1,0.1-0.1,0.2-0.2l0.2-0.2
	c0.1-0.1,0.1-0.1,0.2-0.2l0.2-0.3c0-0.1,0-0.1,0-0.2l0.1-0.2v-0.2V433c0.1-0.1,0.2-0.2,0.2-0.3c0.1-0.1,0.2-0.2,0.2-0.3
	c0.5-0.7,1.1-1.4,1.7-2c0.6-0.6,1.2-1.3,1.9-2c0.7-0.7,1.4-1.3,2.2-1.9c0.8-0.6,1.6-1.2,2.4-1.7c1-0.6,2.1-1.2,3.1-1.7
	c1-0.4,1.9-0.7,2.9-1c0.9-0.2,1.9-0.3,2.9-0.4c0.9-0.1,1.8-0.2,2.7-0.2h9.5l-3.4,4.9h-8.5c-0.9,0-1.7,0.1-2.6,0.3
	c-0.7,0.1-1.5,0.3-2.2,0.6c-0.8,0.3-1.6,0.7-2.2,1.3c-0.8,0.7-1.6,1.6-2.2,2.4h14.6l-3.5,5h-14.5c-0.6,0.8-1,1.6-1.3,2.5
	c-0.2,0.7,0,1.1,0.3,1.3c0.5,0.3,1,0.4,1.5,0.5c0.8,0.1,1.6,0.2,2.4,0.2h8.6l-3.5,5h-9.4c-0.8,0-1.6,0-2.5-0.1 M417.7,421.4
	c1.3,0,2.6,0.2,3.9,0.5c0.9,0.2,1.7,0.7,2.3,1.4c0.2,0.4,0.4,0.9,0.4,1.3s0,0.9-0.2,1.4c-0.5,1.5-1.3,3-2.2,4.3l-10.4,15.2H405
	l9.9-14.5c0.5-0.7,0.9-1.4,1.2-2.2c0.2-0.4,0.3-0.9,0.2-1.3c-0.1-0.3-0.4-0.5-0.9-0.6c-0.6-0.2-1.3-0.2-2-0.2h-5.1l-13,19H389
	l16.5-24.2L417.7,421.4z M425.2,445.6c-0.7-0.1-1.5-0.2-2.2-0.5c-0.6-0.2-1.2-0.5-1.6-1c-0.4-0.5-0.7-1-0.8-1.6
	c-0.2-0.6-0.2-1.1-0.1-1.7c0.1-0.7,0.2-1.3,0.5-2c0.3-0.7,0.6-1.5,0.9-2.2c0.3-0.7,0.7-1.4,1.2-2.2c0.1-0.1,0.1-0.1,0.2-0.2l0.2-0.2
	c0.1-0.1,0.1-0.1,0.2-0.2l0.2-0.3v-0.2l0.1-0.2v-0.2V433l0.2-0.3l0.3-0.3c0.5-0.7,1.1-1.4,1.7-2c0.6-0.6,1.2-1.3,1.9-2
	c0.7-0.7,1.4-1.3,2.2-1.9c0.8-0.6,1.6-1.2,2.4-1.7c1-0.6,2.1-1.2,3.1-1.7c1-0.4,1.9-0.7,2.9-1c0.9-0.2,1.8-0.4,2.8-0.5
	c0.9-0.1,1.8-0.2,2.7-0.2h9.5l-3.3,5h-8.5c-0.9,0-1.7,0.1-2.6,0.3c-0.7,0.1-1.5,0.3-2.2,0.6c-0.8,0.3-1.6,0.7-2.2,1.3
	c-0.8,0.7-1.6,1.6-2.2,2.4H447l-3.5,5H429c-0.5,0.8-1,1.6-1.3,2.5c-0.2,0.7,0,1.1,0.3,1.3c0.5,0.3,1,0.4,1.5,0.5
	c0.8,0.1,1.6,0.2,2.4,0.2h8.6l-3.4,5h-9.4c-0.8,0-1.6,0-2.5-0.1 M455,421.4h7.5l0.2,7.3l10.4-7.3h7.4L463,433.7l0.8,11.9h-7.5
	l-0.4-7l-9.9,7h-7.4l17.2-12.1L455,421.4z M485.4,421.4l6-8.7h6.4l-6,8.7h6.8l-3.3,4.8h-6.8L482,436c-0.7,0.9-1.2,1.8-1.6,2.9
	c-0.2,0.7,0,1.1,0.4,1.3c0.5,0.2,1.1,0.4,1.7,0.5c0.9,0.1,1.7,0.1,2.6,0.1h0.4l-3.2,4.8h-6c-1,0.1-2-0.1-2.9-0.5
	c-0.3-0.1-0.6-0.3-0.8-0.6c-0.2-0.3-0.4-0.6-0.5-0.9c-0.1-0.8-0.1-1.6,0.2-2.4c0.4-1.1,1-2.2,1.7-3.1l8.1-11.9h-4.5l3.3-4.8H485.4z
	 M503.7,445.6l22.5-33h6.7l-22.5,33H503.7z M524.3,445.6c-0.7-0.1-1.5-0.2-2.2-0.5c-0.6-0.2-1.2-0.5-1.6-1c-0.4-0.5-0.7-1-0.9-1.6
	c-0.1-0.6-0.1-1.1,0-1.7c0.1-0.7,0.2-1.3,0.5-2c0.3-0.7,0.6-1.4,0.9-2.2c0.3-0.8,0.7-1.4,1.2-2.2l0.2-0.2c0.1-0.1,0.1-0.2,0.2-0.2
	l0.2-0.2c0-0.1,0.1-0.2,0.2-0.3c0-0.1,0-0.1,0-0.2c0-0.1,0.1-0.1,0.1-0.2c0,0,0,0,0-0.2s0-0.1,0-0.1l0.2-0.3l0.3-0.3
	c0.5-0.7,1.1-1.4,1.7-2c0.6-0.6,1.2-1.3,1.9-2c0.7-0.7,1.4-1.3,2.2-1.9c0.8-0.6,1.6-1.2,2.4-1.7c1-0.6,2-1.2,3.1-1.7
	c1-0.4,1.9-0.7,2.9-1c0.9-0.2,1.9-0.4,2.8-0.5c0.9-0.1,1.8-0.2,2.7-0.2h9.5l-3.5,5h-8.5c-0.9,0-1.7,0.1-2.6,0.3
	c-0.8,0.1-1.6,0.3-2.3,0.6c-0.8,0.3-1.5,0.8-2.2,1.3c-0.8,0.7-1.6,1.6-2.2,2.4h14.6l-3.5,5h-14.5c-0.5,0.8-1,1.6-1.3,2.5
	c-0.2,0.6,0,1.1,0.3,1.3c0.5,0.3,0.9,0.4,1.5,0.5c0.8,0.1,1.6,0.2,2.4,0.2h8.6l-3.2,4.9h-9.4C526,445.6,525.1,445.6,524.3,445.6z
	 M561.3,421.4l-5,17.2l18.9-17.2h6.9l-27.3,24.2h-6.9l6.2-24.2H561.3z M576.9,445.6c-0.7-0.1-1.5-0.2-2.2-0.5
	c-0.6-0.2-1.2-0.5-1.6-1c-0.4-0.5-0.7-1-0.8-1.6c-0.2-0.6-0.2-1.1-0.1-1.7c0.1-0.7,0.2-1.3,0.5-2c0.3-0.7,0.6-1.5,0.9-2.2
	c0.4-0.7,0.7-1.4,1.2-2.2c0.1-0.1,0.1-0.1,0.2-0.2l0.2-0.2c0.1-0.1,0.1-0.1,0.2-0.2l0.2-0.3v-0.2l0.1-0.2v-0.2V433
	c0.1-0.1,0.2-0.2,0.2-0.3l0.3-0.3c0.5-0.7,1.1-1.4,1.7-2c0.6-0.6,1.2-1.3,1.9-2c0.7-0.7,1.4-1.3,2.2-1.9c0.8-0.6,1.6-1.2,2.4-1.7
	c1-0.6,2.1-1.2,3.1-1.7c1-0.4,1.9-0.7,3-1c0.9-0.2,1.8-0.4,2.8-0.5c0.9-0.1,1.8-0.2,2.7-0.2h9.5l-3.5,5h-8.5c-0.9,0-1.7,0.1-2.6,0.3
	c-0.8,0.1-1.5,0.3-2.3,0.6c-0.8,0.3-1.5,0.7-2.2,1.3c-0.8,0.7-1.5,1.6-2.2,2.4h14.6l-3.5,5h-14.5c-0.5,0.8-1,1.6-1.3,2.5
	c-0.2,0.6,0,1.1,0.3,1.3c0.5,0.3,1,0.4,1.5,0.5c0.8,0.1,1.6,0.2,2.4,0.2h8.6l-3.1,4.9h-9.4c-0.8,0-1.6,0-2.5-0.1 M592.8,445.6
	l22.5-33h6.7l-22.5,33H592.8z M269.8,250.9l-22,32.1H121.1c5.7-8.1,12.7-15.1,20.7-20.8c8.6-6.1,18.6-10.1,29.1-11.7L269.8,250.9z
	 M178.9,382.3l20.5-29.7H117c-0.9,0.1-1.8-0.1-2.5-0.6c-0.7-0.5-1.3-1.3-1.5-2.1c-0.3-0.8-0.4-1.7-0.2-2.5c0.2-0.8,0.5-1.6,1.1-2.3
	l25.6-35.8H99.7l-30.3,40.7c0,0-5.4,9-5.8,17.1c-0.1,3.9,1.4,7.6,4,10.4c2.6,2.8,6.3,4.5,10.2,4.7 M194.6,382l49.6-72.3h37.8
	L234.7,382 M346.2,382l-9.4-45.5c0,0,19.3-4.1,31.4-14.5c9.1-7.7,22.2-36.7,22.2-36.7c1.3-4.2,2.2-8.5,2.6-12.8
	c0.5-6.3-3.2-13.6-4.8-15.7c-1.5-2-3.5-3.6-5.9-4.6s-4.9-1.4-7.4-1.1h-90.7l-20.8,31.4h79.1c1.1-0.1,2.2,0,3.3,0.4
	c1,0.4,2,1,2.8,1.8c0.9,0.8,1.5,1.9,1.9,3c0.4,1.1,0.6,2.3,0.4,3.5c0,1.3-4.5,8.9-7.4,12.3c-2.9,3-6.6,5.1-10.6,6.3
	c-1.4,0.3-2.9,0.5-4.4,0.5h-36.3l14.9,71.8 M440.5,250.8h38.8l-22,31.9h-38.4L440.5,250.8z M351.7,382l49.6-72.3h37.3L389.7,382
	 M495.4,250.8h124.5l-23,31.9H473.8L495.4,250.8z M406,382l49.6-72.3h84.7l-23.4,32.7h-45.4L444,382"/>
<path class="st1" d="M91.3,226c12-4.1,17-6.3,23.7,0.7c4.3,4.8,7.7,10.2,10,16.2c-4.3,4-9.4,7-15,9c-4.4,1.5-8.9,2.5-13.5,3.2
	c0,0,1.8-6.4,3.7-11.6c1.9-5.2,7.6-17.3,7.6-17.3l-5.9-0.7c-4.8,6.8-8.9,14-12.2,21.7c-2.7,6.6-4.9,13.4-6.6,20.3
	c0,0,21.3-2.4,33.7-6.3c12.3-3.9,21.5-7.5,23.8-10.1c2.4-2.6,6.7-8.7,9.6-24.7c1.5-7.8,0.9-15.8-1.9-23.3c0,0-1.6-0.7-7.9,2.2
	c-1.1,0.5-2.2,1.1-3.3,1.7c-2.4,1.6-4.5,3.5-6.2,5.8c2,4.3,4,11,2.5,16.9c-7.1-10.7-13.4-16.3-19.2-18.2c-8.4-2.8-12.9-1.4-30,6.2
	c-14.9,6.6-42.3,22.5-56.2,31l-5.9,3.6c0,0,56.2-21.7,69.1-26 M118.9,209.6c4.3-4.1,9.2-7.5,14.4-10.3c8.7-4.5,17.7-8.4,26.9-11.6
	c-10.5,2.3-20.7,5.9-30.4,10.6c-5.3,2.8-10.3,6.2-15,10L118.9,209.6z"/>
</svg>
